<?xml version="1.0" encoding="UTF-8"?>
<svg id="Lag_1" data-name="Lag 1" xmlns="http://www.w3.org/2000/svg" viewBox="0 0 281.12 182.87">
  <defs>
    <style>
      .cls-1 {
        fill: #fff;
      }
    </style>
  </defs>
  <polygon points="237.92 93.53 250.62 146.83 250.62 93.53 261.81 93.53 261.81 182.87 248.59 182.87 233.34 118.4 233.34 182.87 221.65 182.87 221.65 93.53 237.92 93.53"/>
  <polygon points="102.21 1.65 114.92 54.44 114.92 1.65 126.1 1.65 126.1 82.36 110.85 82.36 97.64 26.53 97.64 82.36 85.95 82.36 85.95 1.65 102.21 1.65"/>
  <path d="M167.78,97.59c.25,1.91,1.84,2.92,2.64,4.72,2.56,5.73,2.59,19.5.99,25.56-1.05,3.99-3.45,7.76-7.19,9.56,4.58,2.23,6.29,4.99,7.39,9.88,2.57,11.47-1.42,24.29,2.27,35.55h-13.21c-2.55-9.72.09-20.86-1.07-30.65-.3-2.54-2.25-7.42-5.28-7.42h-7.37v38.07h-12.71v-85.28h33.54ZM155.33,106.22c-2.25-.48-5.94.35-8.39,0v25.89c8.23.69,12.1-.75,12.73-9.37.27-3.74.63-15.45-4.34-16.52Z"/>
  <path d="M124.07,97.59c1.45.32,2.12,2.9,2.64,4.72,1.74,6.03,2.59,19.5.99,25.56-1.05,3.99-3.45,7.76-7.19,9.56,4.58,2.23,6.29,4.99,7.39,9.88,2.57,11.47-1.42,24.29,2.27,35.55h-13.21c-2.55-9.72.09-20.86-1.07-30.65-.3-2.54-2.25-7.42-5.28-7.42h-7.37v38.07h-12.71v-85.28h33.54ZM111.62,106.22c-2.25-.48-5.94.35-8.39,0v25.89c8.23.69,12.1-.75,12.73-9.37.27-3.74.63-15.45-4.34-16.52Z"/>
  <path d="M35.12,97.59c1.55.54,2.53,2.61,3.14,4.73,4.74,16.42,3.04,46.77,2.44,62.52-.14,7.8-6.41,18.03-14.99,18.03H2.09v-85.28h33.04ZM14.79,170.18h8.89c2.83,0,4.1-5.62,4.34-7.85,1.76-15.91,1.45-33.38-.02-49.26-.94-4.61-1.98-6.85-4.32-6.85h-8.89v63.96Z"/>
  <path d="M59.01,97.59v68.78c.51,3,1.69,3.39,2.27,3.82,2.1,1.58,6.8,1.39,8.67-.5.39-.4,1.77-1.03,1.76-3.83v-68.27h12.2v69.79c-.25,3.78-1.57,6.15-2.09,7.05-7.29,12.76-25.94,12.91-32.57,1.68-.69-1.17-2.48-3.79-2.95-7.71v-70.81h12.71Z"/>
  <path d="M67.49.82c.66.2,4.2,2.04,5.2,2.65,5.48,3.34,7.59,10.17,8.11,16.27,1.2,14.22,1.06,37.9.09,52.24-.24,3.56-1.35,6.92-2.08,10.36l-34.2.04c-1.62-3.7-1.95-5.83-2.4-8.37-.22-18.21-1.4-37.9,0-55.87.47-6.05,3.18-12.24,8.64-15.23C55.78.21,61.8-.89,67.49.82ZM59.38,13.45c-3.18.65-4.14,3.33-4.43,6.23.19,16.46-.26,35.7-.03,52.81.14,10.24,12.77,8.89,13.18-.58.5-13.72.76-33.98.07-50.22-.23-5.55-2.37-9.56-8.8-8.24Z"/>
  <path d="M174.89,182.87l12.2-85.28,18.07-.03,13.44,85.31h-12.45c-.52-.32-.65-.7-.76-1.27-.39-2.13-1.41-15.48-2.11-15.91l-14.67-.07-2.03,17.26h-11.69ZM201.83,153.42l-5.84-44.17-5.34,44.17h11.18Z"/>
  <path d="M171.59,1.65c4.46,1.11,11.42.65,16.23-.03l11.98,80.74h-12.71l-1.09-8.56-14.67-.07-1.01,8.63h-11.69M184.55,61.55l-5.84-44.67-5.34,44.67h11.18Z"/>
  <path d="M12.25,73.99c1.16,7.5,12.37,7.99,13.21-2.03,1.33-16.01-17.13-23.38-22.88-37.04C-1.02,26.36-.88,9.19,7.83,3.58,12.4.65,16.62-.3,22.15.14c2.7.21,7.72,1.82,10.95,5.31,2.73,2.97,4.43,7.14,4.57,10.67v10.41h-11.69c.06-4.09.56-12.3-4.86-13.17-4.18-.67-7.22,1.07-7.8,5.34-2.16,15.81,15.08,22.76,21.5,35.29,4.45,8.68,4.2,19.18,1.28,28.32H2.15C0,76.59-.12,70.65.06,64.6h12.2c.32,2.91-.43,6.6,0,9.39Z"/>
  <rect x="268.41" y="93.53" width="12.71" height="89.34"/>
  <path d="M154.56,1.65l.02,70.16c0,.46,0,1.22-.13,1.7l-1.92,8.85h-22.36v-4.06c2.26.87,6.82.86,8.83-.57.9-.63,2.71-3.01,2.85-5.78V1.65h12.71Z"/>
  <path d="M35.12,85.41c.38.25.96,6.19,2.54,6.6.11-1.22,1.59-8.22,3.56-6.6.31,1.62.63,4.03,1.41,5.44.32.58-.02.86,1.13.65l1.48-5.8,1.57-.29-2.6,8.56-1.95.04-.51-2.79c-2.12-7.25-2.52-.38-3.64,2.76l-1.95.04-2.12-7.53c-5.27-1.13-3.07,3.49-3.5,6.8-.12.93.17.82-1.02.75v-7.61h-8.13v3.05c.18.18,6.55-.49,4.57,1.01h-4.57s0,3.56,0,3.56h-1.52v-8.63h15.25Z"/>
  <path d="M108.31,85.41c2.04,1.54-4.89.81-5.08,1.02.01.42-.05.86-.02,1.28.05.77.02,1.45.85,1.69l4.25.08c-.45,1.86-4.72.62-5.08,1.01v2.03s5.09,0,5.09,0v1.52s-6.61,0-6.61,0l.51-7.61-3.59.22-.4.61c-.33,1.94.17,4.13-.07,6.03-.12.93.17.82-1.02.75v-7.61h-3.05s0-1.02,0-1.02h14.23Z"/>
  <path d="M178.96,85.41c3.57-.54,3.62,4.78,6.6,6.09v-6.09s1.53,0,1.53,0v8.63c-3.35.5-3.72-4.8-6.6-6.09v6.09s-1.53,0-1.53,0v-8.63Z"/>
  <path d="M188.11,85.41c10.56-1.93,10.11,10.56,0,8.63v-8.63ZM193.57,87.06c-.86-.81-2.82-.63-3.94-.64v6.1c3.59,1.03,6.86-2.69,3.94-5.45Z"/>
  <path d="M147.96,85.41c10.69-1.79,10.22,10.52,0,8.63v-8.63ZM153.4,87.08c-1.09-.88-2.65-.64-3.92-.66v6.1c3.64,1.03,7.18-2.81,3.92-5.43Z"/>
  <path d="M163.71,85.41c4.48-1.09,10.84,1.89,4.57,5.09l2.54,3.54c-2.42.33-2.6-3.17-4.82-3.56-1.5-.27-.5,2.67-.77,3.56h-1.52v-8.63ZM165.24,89.47c2.19.08,4.93.52,3.85-2.58l-3.85-.47v3.05Z"/>
  <path d="M109.33,85.41c1.56.09,5.48-.47,6.36,1.01s.19,4.01-1.78,4.08l2.03,3.54c-2.65.41-1.76-3.1-4.31-3.56-1.5-.27-.49,2.67-.77,3.56h-1.52v-8.63ZM114.87,86.98l-4.02-.56v3.05s3.59-.23,3.59-.23l.43-2.27Z"/>
  <path d="M11.89,93.38c-4.3-3.5.32-10.86,5.44-7.2,4.47,3.2-.98,10.83-5.44,7.2ZM16.7,87.06c-4.19-3.97-7.99,5.91-1.64,5.49,2.84-.19,3.47-3.77,1.64-5.49Z"/>
  <path d="M131.69,87.94c-1.02.96-1.81-1.37-2.79-1.54-2.16-.38-3.14.37-2.81,2.56,1.24.03,5.56.29,5.64,1.77.27,4.75-6.63,4.54-7.16.26,1.5.06,1.54,1.48,3.3,1.57,1.28.07,2.03-.31,2.78-1.32-2.63-1.7-7.87-.42-5.46-5.21,2.12-2.1,7.71.75,6.48,1.91Z"/>
  <path d="M9.71,87.94c-1.02.96-1.81-1.37-2.79-1.54-2.16-.38-3.14.37-2.81,2.56,1.24.03,5.56.29,5.64,1.77.27,4.75-6.63,4.54-7.16.26,1.5.06,1.54,1.48,3.3,1.57,1.28.07,2.03-.31,2.78-1.32-2.63-1.7-7.87-.42-5.46-5.21,2.12-2.1,7.71.75,6.48,1.91Z"/>
  <path d="M93.57,87.94c-.97,1.02-1.91-1.3-2.35-1.44-2.24-.75-4.51.98-2.73,2.21,1.06.74,5.63.14,5.59,2.53-.71,3.98-7.44,4.06-7.12-.24,1.18-.22,1.45,1.14,2.39,1.42,1.71.52,3.6.15,3.2-1.93-2-.08-5.65-.09-5.64-2.8,0-4.19,8.63-1.83,6.66.25Z"/>
  <path d="M55.45,85.41c4.63-.92,9.78,1.46,4.59,5.32l2.02,3.3c-2.86.32-2.08-3.46-4.82-3.56-1.98-.08.55,4.02-1.79,3.57v-8.63ZM56.47,89.47c2.19.08,4.93.52,3.85-2.58l-3.85-.47v3.05Z"/>
  <path d="M162.69,85.41c.42,1.82-2.57.8-3.81,1.01-1.92.33-.95,1.59-.7,2.98l4.51.06c1.97,1.5-4.4.83-4.57,1.01v2.03s4.58,0,4.58,0v1.52s-6.1,0-6.1,0v-8.63s6.1,0,6.1,0Z"/>
  <path d="M202.85,85.41c.42,1.82-2.57.8-3.81,1.01-1.92.33-.95,1.59-.7,2.98l4.51.06c1.97,1.5-4.4.83-4.57,1.01v2.03s4.58,0,4.58,0v1.52s-6.1,0-6.1,0v-8.63s6.1,0,6.1,0Z"/>
  <path d="M85.95,85.41c.42,1.82-2.57.8-3.81,1.01-1.92.33-.95,1.59-.7,2.98l4.51.06c1.97,1.5-4.4.83-4.57,1.01v2.03s4.58,0,4.58,0v1.52s-6.1,0-6.1,0v-8.63s6.1,0,6.1,0Z"/>
  <path d="M69.17,85.41c.42,1.82-2.57.8-3.81,1.01-1.92.33-.95,1.59-.7,2.98l4.51.06c1.97,1.5-4.4.83-4.57,1.01v2.03s4.58,0,4.58,0v1.52s-6.1,0-6.1,0v-8.63s6.1,0,6.1,0Z"/>
  <path d="M177.94,85.41c2.03,1.54-4.89.81-5.08,1.01.01.42-.05.86-.02,1.28.05.77.02,1.45.85,1.69l4.25.08c-.45,1.86-4.72.62-5.08,1.01v2.03s5.09,0,5.09,0v1.52s-6.61,0-6.61,0c.58-2.86.88-5.78,0-8.62h6.6Z"/>
  <path d="M140.84,85.41c-1.44,9.51,6.11,9.83,4.58,0h1.52c.36,3.65.33,10.46-5.25,8.55-2.17-.74-2.1-5.92-1.86-7.79.09-.74.39-1.57,1.02-.75Z"/>
  <path d="M51.32,85.48l3.11,8.56c-2.51-.64-.51-2.44-3.8-2.57-4.11-.17-1.62,2.52-4.84,2.57l3.62-8.55h1.9ZM50.88,86.93c-.93-.98-1.92,3.08-2.03,3.55h3.05s-1.02-3.55-1.02-3.55Z"/>
  <polygon points="79.34 85.41 79.34 86.42 76.29 86.42 76.29 94.04 74.77 94.04 74.77 86.42 71.72 86.42 71.72 85.41 79.34 85.41"/>
  <path d="M139.32,85.41c.46,2.04-2.48.27-3.34,1.49-.61,2.03.04,4.36-.22,6.39-.12.93.17.82-1.02.75v-7.61h-3.05s0-1.02,0-1.02h7.62Z"/>
  <path class="cls-1" d="M193.57,87.06c2.92,2.76-.35,6.48-3.94,5.45v-6.1c1.12.01,3.08-.17,3.94.64Z"/>
  <path class="cls-1" d="M153.4,87.08c3.26,2.62-.29,6.46-3.92,5.43v-6.1c1.27.02,2.83-.21,3.92.66Z"/>
  <path class="cls-1" d="M165.24,89.47v-3.05l3.85.47c1.08,3.1-1.66,2.66-3.85,2.58Z"/>
  <polygon class="cls-1" points="114.87 86.98 114.44 89.24 110.85 89.47 110.85 86.42 114.87 86.98"/>
  <path class="cls-1" d="M16.7,87.06c1.82,1.72,1.19,5.31-1.64,5.49-6.34.42-2.55-9.46,1.64-5.49Z"/>
  <path class="cls-1" d="M56.47,89.47v-3.05l3.85.47c1.08,3.1-1.66,2.66-3.85,2.58Z"/>
  <path class="cls-1" d="M50.88,86.93l1.02,3.55h-3.05c.11-.47,1.09-4.53,2.03-3.55Z"/>
</svg>